<svg width="1080" height="380" viewBox="0 0 1080 1080" fill="none" xmlns="http://www.w3.org/2000/svg">
<g clip-path="url(#clip0_1_679)">
<path d="M784.861 880.531V884.531H624.621V880.531H784.861Z" fill="#000F47"/>
<path d="M992.819 963.863V1076H633.679C602.759 1076 577.609 1050.85 577.609 1019.93C577.609 989.013 602.759 963.863 633.679 963.863H992.819ZM996.819 959.863H633.679C600.499 959.863 573.609 986.753 573.609 1019.93C573.609 1053.11 600.499 1080 633.679 1080H996.819V959.863Z" fill="#000F47"/>
<path d="M618.7 408.34L1080 520.41V1080H838.94L495.18 589.26" fill="#FFBF00"/>
<mask id="mask0_1_679" style="mask-type:luminance" maskUnits="userSpaceOnUse" x="495" y="408" width="585" height="672">
<path d="M618.7 408.34L1080 520.41V1080H838.94L495.18 589.26" fill="white"/>
</mask>
<g mask="url(#mask0_1_679)">
<path d="M771.711 760.391H1100.27V880.531H771.711C738.561 880.531 711.641 853.611 711.641 820.461C711.641 787.311 738.561 760.391 771.711 760.391Z" fill="white"/>
<path d="M1040.34 760.402H787.59V681.072H1040.34C1062.23 681.072 1080 698.842 1080 720.732C1080 742.622 1062.23 760.392 1040.34 760.392V760.402Z" fill="#000F47"/>
<path d="M633.691 959.863H1028.98V1080H633.691C600.541 1080 573.621 1053.08 573.621 1019.93C573.621 986.783 600.541 959.863 633.691 959.863Z" fill="white"/>
<path d="M943.383 959.863H624.623V880.533H943.383C965.273 880.533 983.043 898.303 983.043 920.193C983.043 942.083 965.273 959.863 943.383 959.863Z" fill="#000F47"/>
</g>
<path d="M621.983 407.082L495.202 592.779L395.209 450.038L452.629 365.933L621.983 407.082ZM400.071 450.008L495.159 585.747L615.418 409.603L454.372 370.473L400.071 450.008Z" fill="#000F47"/>
<path d="M364.369 338.872C353.669 331.567 339.048 334.317 331.739 345.025L331.733 345.033C324.428 355.733 327.179 370.354 337.887 377.664L352.522 387.655L379.004 348.862L364.369 338.872ZM384.563 347.814L353.57 393.213L335.632 380.968C323.099 372.412 319.88 355.301 328.429 342.777L328.435 342.769C336.991 330.236 354.1 327.018 366.624 335.568L384.563 347.814Z" fill="#000F47"/>
<path d="M223.531 587.391C251.511 587.391 274.281 610.161 274.281 638.141C274.281 666.121 251.511 688.891 223.531 688.891C195.551 688.891 172.781 666.121 172.781 638.141C172.781 610.161 195.551 587.391 223.531 587.391ZM223.531 583.391C193.291 583.391 168.781 607.901 168.781 638.141C168.781 668.381 193.291 692.891 223.531 692.891C253.771 692.891 278.281 668.381 278.281 638.141C278.281 607.901 253.771 583.391 223.531 583.391Z" fill="#000F47"/>
<path d="M376.4 1022.44C398.26 1022.44 419.79 1028.11 438.68 1038.84C454.87 1048.04 468.92 1060.8 479.66 1076H273.13C283.87 1060.8 297.92 1048.04 314.11 1038.84C333 1028.11 354.54 1022.44 376.39 1022.44M376.4 1018.44C329.67 1018.44 288.69 1043.04 265.68 1080H487.12C464.12 1043.05 423.14 1018.44 376.4 1018.44Z" fill="#000F47"/>
<path d="M387.003 442.746L270.282 613.724C269.594 612.411 268.852 611.131 268.06 609.886L383.699 440.491L387.003 442.746ZM357.146 422.364L243.245 589.211C241.972 588.696 240.675 588.23 239.355 587.814L353.843 420.109L357.146 422.364Z" fill="#000F47"/>
<path d="M394.825 325.711L456.281 367.665L398.168 452.79L336.713 410.837L394.825 325.711ZM397.12 447.232L450.722 368.713L395.874 331.27L342.272 409.789L397.12 447.232Z" fill="#000F47"/>
<path d="M220.497 690.399C221.573 690.465 222.658 690.5 223.75 690.5C224.118 690.5 224.485 690.495 224.851 690.487L359.577 1021.53C358.214 1021.7 356.857 1021.9 355.505 1022.12L220.497 690.399ZM394.351 1021.68C392.841 1021.47 391.325 1021.28 389.803 1021.13L251.92 682.332C253.076 681.599 254.202 680.824 255.295 680.006L394.351 1021.68Z" fill="#000F47"/>
</g>
<defs>
<clipPath id="clip0_1_679">
<rect width="1080" height="1080" fill="white"/>
</clipPath>
</defs>
</svg>
